# xmcd
#
# Track frame offsets: 
#        150
#        10952
#        23047
#        36495
#        46832
#        57795
#        69422
#        84470
#        96040
#        106310
#        115327
#        127315
#        139660
#        151110
#        163745
#        176807
#        185955
#        196370
#        206907
#        218247
#        230230
#
# Disc length: 3189 seconds
#
# Revision: 3
# Processed by: cddbd v1.5.2PL0 Copyright (c) Steve Scherf et al.
# Submitted via: ExactAudioCopy v1.0b1
#
DISCID=370c7315
DTITLE=Hylo Brown and The Timberliners - 1954-1960 [CD1]
DYEAR=1992
DGENRE=Bluegrass
TTITLE0=Flower Blooming In The Wildwood
TTITLE1=Put My Little Shoes Away
TTITLE2=Blue Eyed Darling
TTITLE3=Will The Angels Play Their Harps For Me
TTITLE4=The Old Home Town
TTITLE5=Love And Wealth
TTITLE6=I'll Be All Smiles Tonight
TTITLE7=Gathering Flowers From The Hillside
TTITLE8=Little Joe
TTITLE9=Darling Nellie Across The Sea
TTITLE10=When It's Lamp Lightin' Time In The Valley
TTITLE11=Why Do You Weep Dear Willow
TTITLE12=Test Of Love
TTITLE13=Dark As A Dungeon
TTITLE14=Lost To A Stranger
TTITLE15=Sweethearts Or Strangers (take 11)
TTITLE16=In The Clay Beneath The Tomb
TTITLE17=The Wrong Kind Of Life
TTITLE18=I'll Be Broken Hearted
TTITLE19=Let's Stop Fooling Our Hearts
TTITLE20=Sweethearts Or Strangers (take 9)
EXTD=Bear Family - BCD 15572 BH\nTitle includes release year
EXTT0=1959
EXTT1=1959
EXTT2=1959
EXTT3=1959
EXTT4=1959
EXTT5=1959
EXTT6=1959
EXTT7=1959
EXTT8=1959
EXTT9=1959
EXTT10=1959
EXTT11=1959
EXTT12=1992
EXTT13=1992
EXTT14=1992
EXTT15=1992 (Take 11)
EXTT16=1956
EXTT17=1956
EXTT18=1956
EXTT19=1956
EXTT20=1992 (Take 9)
PLAYORDER=
